<?xml version="1.0" encoding="UTF-8"?>
<svg id="Calque_1" xmlns="http://www.w3.org/2000/svg" version="1.1" viewBox="0 0 30 30">
  <!-- Generator: Adobe Illustrator 29.3.1, SVG Export Plug-In . SVG Version: 2.1.0 Build 151)  -->
  <defs>
    <style>
      .st0 {
        fill: #a8a8a8;
      }
    </style>
  </defs>
  <path class="st0" d="M5.3,10.2s-1.4-3,3.2-4.4c0,0,0-3.3,4.7-2.6,0,0,4.9,1.1,4.2-2.1,0,0,4.2-.1,4,4.5,0,0,4.1.8,3.3,4.5,0,0,8.8,2.8,1,9.4,0,0-2,8.5-2.9,9.1s-12.6.1-15.3,0c-.3,0-.6-.2-.7-.5-.5-1.6-2.2-6.4-2.9-8.7,0,0-7.2-4.8,1.4-9.2Z"/>
</svg>