<?xml version="1.0" encoding="UTF-8"?>
<svg id="Calque_1" xmlns="http://www.w3.org/2000/svg" xmlns:xlink="http://www.w3.org/1999/xlink" version="1.1" viewBox="0 0 30 30">
  <!-- Generator: Adobe Illustrator 29.3.1, SVG Export Plug-In . SVG Version: 2.1.0 Build 151)  -->
  <defs>
    <style>
      .st0 {
        fill: url(#Dégradé_sans_nom_2);
      }

      .st1 {
        fill: #f995e2;
      }
    </style>
    <linearGradient id="Dégradé_sans_nom_2" data-name="Dégradé sans nom 2" x1="14.9" y1="2.7" x2="15.1" y2="29.8" gradientUnits="userSpaceOnUse">
      <stop offset="0" stop-color="#ffff26"/>
      <stop offset="1" stop-color="#de79ff"/>
    </linearGradient>
  </defs>
  <path class="st0" d="M18.4,29.4c-4,0-9.4-.2-10.9-.2-.5,0-.9-.3-1.1-.8-.5-1.4-2.1-6.2-2.9-8.6-.6-.5-3-2.4-2.9-4.9.1-1.8,1.5-3.4,4.1-4.9-.1-.5-.2-1.2.2-2.1.5-1.1,1.5-1.9,3.2-2.5,0-.4.3-1.1.8-1.7.7-.7,1.7-1.1,3-1.1s.9,0,1.4.1c0,0,.8.2,1.7.2s1.4,0,1.8-.5c.2-.3.2-.6.1-1.2v-.6c-.1,0,.5,0,.5,0,.4,0,2.2,0,3.4,1.3.8.8,1.2,1.9,1.2,3.3.7.2,2,.7,2.8,1.9.5.8.7,1.7.6,2.7,1,.4,3.6,1.6,4.1,4,.4,1.8-.7,3.9-3.2,6-.8,3.3-2.2,8.6-3.1,9.2-.2.1-.5.3-4.8.3Z"/>
  <path class="st1" d="M17.4,1.1c.4,0,4.2.1,4,4.5,0,0,4.1.8,3.3,4.5,0,0,8.8,2.8,1,9.4,0,0-2,8.5-2.9,9.1-.3.2-2.1.3-4.5.3-4,0-9.3-.2-10.9-.2-.3,0-.5-.2-.6-.4-.5-1.5-2.2-6.5-3-8.8,0,0-7.2-4.8,1.4-9.2,0,0-1.4-3,3.2-4.4,0,0,0-2.7,3.4-2.7.4,0,.8,0,1.3.1,0,0,.8.2,1.8.2,1.3,0,2.9-.4,2.4-2.3,0,0,0,0,0,0M17.4.1h0s-1.2,0-1.2,0l.3,1.2c0,.2.1.6,0,.7-.1.2-.6.4-1.4.4s-1.5-.2-1.5-.2h0s0,0,0,0c-.5,0-1-.1-1.5-.1-1.4,0-2.6.4-3.3,1.2-.6.6-.8,1.2-.9,1.7-1.6.6-2.7,1.5-3.2,2.6-.3.8-.3,1.5-.3,2C1.5,11.2.2,12.9,0,14.8c-.2,2.6,2.1,4.6,3,5.2.8,2.4,2.4,7.1,2.9,8.5.2.6.8,1.1,1.5,1.1,1.6,0,7,.2,10.9.2s4.7-.2,5-.4c.3-.2,1.1-.8,3.2-9.4,2.6-2.2,3.7-4.4,3.3-6.4-.5-2.3-2.8-3.6-4.1-4.2,0-1-.2-1.9-.7-2.6-.8-1.1-1.9-1.7-2.7-2,0-1.4-.5-2.5-1.3-3.3C19.7.2,17.8.1,17.4.1h0Z"/>
</svg>