<?xml version="1.0" encoding="UTF-8"?>
<svg id="Calque_1" xmlns="http://www.w3.org/2000/svg" xmlns:xlink="http://www.w3.org/1999/xlink" version="1.1" viewBox="0 0 30 30">
  <!-- Generator: Adobe Illustrator 29.3.1, SVG Export Plug-In . SVG Version: 2.1.0 Build 151)  -->
  <defs>
    <style>
      .st0 {
        fill: url(#Dégradé_sans_nom_5);
      }

      .st1 {
        fill: #0ba2ff;
      }
    </style>
    <linearGradient id="Dégradé_sans_nom_5" data-name="Dégradé sans nom 5" x1="15" y1="28.3" x2="15" y2="1.6" gradientUnits="userSpaceOnUse">
      <stop offset="0" stop-color="#ffff0b"/>
      <stop offset="0" stop-color="#fff10d"/>
      <stop offset=".2" stop-color="#ffcf13"/>
      <stop offset=".4" stop-color="#ffb518"/>
      <stop offset=".6" stop-color="#ffa21b"/>
      <stop offset=".8" stop-color="#ff961d"/>
      <stop offset="1" stop-color="#ff931e"/>
    </linearGradient>
  </defs>
  <polygon class="st0" points="15 22 6.8 28.3 9.9 18.1 1.7 11.8 11.8 11.8 15 1.6 18.2 11.8 28.3 11.8 20.1 18.1 23.2 28.3 15 22"/>
  <path class="st1" d="M15,3.3l2.8,9h9l-7.3,5.6,2.8,9-7.3-5.6-7.3,5.6,2.8-9-7.3-5.6h9l2.8-9M15,0l-1,3.1-2.6,8.3H.2l2.3,1.8,6.8,5.2-2.6,8.4-.9,3,2.5-1.9,6.7-5.1,6.7,5.1,2.5,1.9-.9-3-2.6-8.4,6.8-5.2,2.3-1.8h-11.3l-2.6-8.3L15,0h0Z"/>
</svg>